<svg xmlns="http://www.w3.org/2000/svg" width="21.531" height="13.344" viewBox="0 0 21.531 13.344">
  <metadata><?xpacket begin="﻿" id="W5M0MpCehiHzreSzNTczkc9d"?>
<x:xmpmeta xmlns:x="adobe:ns:meta/" x:xmptk="Adobe XMP Core 5.6-c142 79.160924, 2017/07/13-01:06:39        ">
   <rdf:RDF xmlns:rdf="http://www.w3.org/1999/02/22-rdf-syntax-ns#">
      <rdf:Description rdf:about=""/>
   </rdf:RDF>
</x:xmpmeta>

<?xpacket end="w"?></metadata>
<defs>
    <style>
      .cls-1 {
        fill-rule: evenodd;
        fill: #e0dfdf;
      }
    </style>
  </defs>
  <path id="Forma_1" data-name="Forma 1" class="cls-1" d="M21.925,10.073L13.09,1.238A2.075,2.075,0,0,0,11.5.641a2.07,2.07,0,0,0-1.588.6L1.077,10.073a2.086,2.086,0,0,0,0,2.945l0.739,0.737a2.086,2.086,0,0,0,2.942,0L11.5,7.013l6.742,6.742a2.086,2.086,0,0,0,2.942,0l0.737-.737A2.086,2.086,0,0,0,21.925,10.073Z" transform="translate(-0.469 -0.656)"/>
</svg>
