<svg xmlns="http://www.w3.org/2000/svg" xmlns:xlink="http://www.w3.org/1999/xlink" width="86.125" height="73.656" viewBox="0 0 86.125 73.656">
  <metadata><?xpacket begin="﻿" id="W5M0MpCehiHzreSzNTczkc9d"?>
<x:xmpmeta xmlns:x="adobe:ns:meta/" x:xmptk="Adobe XMP Core 5.6-c142 79.160924, 2017/07/13-01:06:39        ">
   <rdf:RDF xmlns:rdf="http://www.w3.org/1999/02/22-rdf-syntax-ns#">
      <rdf:Description rdf:about=""/>
   </rdf:RDF>
</x:xmpmeta>
                                                                                                    
                                                                                                    
                                                                                                    
                                                                                                    
                                                                                                    
                                                                                                    
                                                                                                    
                                                                                                    
                                                                                                    
                                                                                                    
                                                                                                    
                                                                                                    
                                                                                                    
                                                                                                    
                                                                                                    
                                                                                                    
                                                                                                    
                                                                                                    
                                                                                                    
                                                                                                    
                           
<?xpacket end="w"?></metadata>
<defs>
    <style>
      .cls-1 {
        fill-rule: evenodd;
        filter: url(#filter);
      }
    </style>
    <filter id="filter" x="157.875" y="864.344" width="86.125" height="73.656" filterUnits="userSpaceOnUse">
      <feFlood result="flood" flood-color="#54d154"/>
      <feComposite result="composite" operator="in" in2="SourceGraphic"/>
      <feBlend result="blend" in2="SourceGraphic"/>
    </filter>
  </defs>
  <path id="Forma_1" data-name="Forma 1" class="cls-1" d="M242.2,866.147a5.934,5.934,0,0,0-4.35-1.8h-73.83a6.147,6.147,0,0,0-6.153,6.139v61.38a6.147,6.147,0,0,0,6.153,6.139h73.829A6.147,6.147,0,0,0,244,931.867v-61.38A5.91,5.91,0,0,0,242.2,866.147Zm-72.028,1.271h18.457v6.138H170.17v-6.138Zm67.678,64.449h-73.83v-6.138h73.83v6.138h0Zm-55.373-27.525a18.44,18.44,0,1,1,5.407,13.019A17.726,17.726,0,0,1,182.475,904.342Zm55.373-27.237v5.658h-73.83v-6.138h30.955l3.076-6.138h39.8v6.618h0Zm-28.216,35.917a12.322,12.322,0,1,0-8.7,3.6A11.813,11.813,0,0,0,209.632,913.022Zm-11.969-12.037a4.436,4.436,0,0,0-1.345,3.261,1.539,1.539,0,1,1-3.077,0,7.7,7.7,0,0,1,7.691-7.672,1.535,1.535,0,1,1,0,3.069A4.457,4.457,0,0,0,197.663,900.985Z" transform="translate(-157.875 -864.344)"/>
</svg>
