<svg xmlns="http://www.w3.org/2000/svg" xmlns:xlink="http://www.w3.org/1999/xlink" width="86.156" height="73.656" viewBox="0 0 86.156 73.656">
  <metadata><?xpacket begin="﻿" id="W5M0MpCehiHzreSzNTczkc9d"?>
<x:xmpmeta xmlns:x="adobe:ns:meta/" x:xmptk="Adobe XMP Core 5.6-c142 79.160924, 2017/07/13-01:06:39        ">
   <rdf:RDF xmlns:rdf="http://www.w3.org/1999/02/22-rdf-syntax-ns#">
      <rdf:Description rdf:about=""/>
   </rdf:RDF>
</x:xmpmeta>
                                                                                                    
                                                                                                    
                                                                                                    
                                                                                                    
                                                                                                    
                                                                                                    
                                                                                                    
                                                                                                    
                                                                                                    
                                                                                                    
                                                                                                    
                                                                                                    
                                                                                                    
                                                                                                    
                                                                                                    
                                                                                                    
                                                                                                    
                                                                                                    
                                                                                                    
                                                                                                    
                           
<?xpacket end="w"?></metadata>
<defs>
    <style>
      .cls-1 {
        fill-rule: evenodd;
        filter: url(#filter);
      }
    </style>
    <filter id="filter" x="915.844" y="861" width="86.156" height="73.656" filterUnits="userSpaceOnUse">
      <feFlood result="flood" flood-color="#54d154"/>
      <feComposite result="composite" operator="in" in2="SourceGraphic"/>
      <feBlend result="blend" in2="SourceGraphic"/>
    </filter>
  </defs>
  <path id="Forma_1" data-name="Forma 1" class="cls-1" d="M969.692,911.633a3.115,3.115,0,0,1-3.076,3.07H951.234a3.115,3.115,0,0,1-3.076-3.07v-7.671h-32.3v23.017a7.7,7.7,0,0,0,7.691,7.671H994.3a7.7,7.7,0,0,0,7.688-7.671V903.962h-32.3v7.671h0Zm-16.92-7.671h12.306V910.1H952.772v-6.137Zm46.961-28.437a7.413,7.413,0,0,0-5.431-2.254h-16.92V865.6a4.591,4.591,0,0,0-4.614-4.6H945.082a4.591,4.591,0,0,0-4.615,4.6v7.673H923.548a7.7,7.7,0,0,0-7.691,7.672v18.415h86.133V880.943A7.371,7.371,0,0,0,999.733,875.525Zm-28.5-2.254H946.62v-6.138h24.61v6.138Z" transform="translate(-915.844 -861)"/>
</svg>
